<mxfile host="app.diagrams.net" modified="2024-05-06T12:29:22.499Z" agent="Mozilla/5.0 (Windows NT 10.0; Win64; x64) AppleWebKit/537.36 (KHTML, like Gecko) Chrome/124.0.0.0 Safari/537.36 Edg/124.0.0.0" version="23.1.1" etag="3WyVRI6v_TquIXa2-u4S" type="github">
  <diagram name="第 1 页" id="FmyDAHHZ_AW4aMSzhIGh">
    <mxGraphModel>
      <root>
        <mxCell id="0" />
        <mxCell id="1" parent="0" />
      </root>
    </mxGraphModel>
  </diagram>
</mxfile>
